<svg width="39" height="40" viewBox="0 0 39 40" fill="none" xmlns="http://www.w3.org/2000/svg">
<path d="M5.06543 29.8252C5.58594 29.8252 6.01758 29.6602 6.52539 29.3555L19.4619 21.7383C20.1602 21.332 20.541 20.875 20.6807 20.3418V27.6543C20.6807 29.0635 21.5186 29.8252 22.5088 29.8252C23.0293 29.8252 23.4609 29.6602 23.9688 29.3555L36.918 21.7383C37.8066 21.2051 38.2002 20.583 38.2002 19.8467C38.2002 19.123 37.8066 18.501 36.918 17.9678L23.9688 10.3506C23.4609 10.0459 23.0293 9.88086 22.5088 9.88086C21.5186 9.88086 20.6807 10.6426 20.6807 12.0518V19.3643C20.541 18.8311 20.1602 18.374 19.4619 17.9678L6.52539 10.3506C6.00488 10.0459 5.58594 9.88086 5.06543 9.88086C4.0752 9.88086 3.2373 10.6426 3.2373 12.0518V27.6543C3.2373 29.0635 4.0752 29.8252 5.06543 29.8252Z" fill="white"/>
</svg>
