<svg width="33" height="40" viewBox="0 0 33 40" fill="none" xmlns="http://www.w3.org/2000/svg">
<path d="M7.19922 35.7256H11.4297C13.0439 35.7256 13.8975 34.8721 13.8975 33.2393V7.96777C13.8975 6.2793 13.0439 5.5 11.4297 5.5H7.19922C5.58496 5.5 4.73145 6.35352 4.73145 7.96777V33.2393C4.73145 34.8721 5.58496 35.7256 7.19922 35.7256ZM20.6885 35.7256H24.9004C26.5332 35.7256 27.3682 34.8721 27.3682 33.2393V7.96777C27.3682 6.2793 26.5332 5.5 24.9004 5.5H20.6885C19.0557 5.5 18.2021 6.35352 18.2021 7.96777V33.2393C18.2021 34.8721 19.0557 35.7256 20.6885 35.7256Z" fill="white"/>
</svg>
