<svg width="39" height="40" viewBox="0 0 39 40" fill="none" xmlns="http://www.w3.org/2000/svg">
<path d="M16.0088 29.8252C16.999 29.8252 17.8369 29.0635 17.8369 27.6543V20.3418C17.9766 20.875 18.3701 21.332 19.0557 21.7383L31.9922 29.3555C32.5 29.6602 32.9316 29.8252 33.4521 29.8252C34.4424 29.8252 35.2803 29.0635 35.2803 27.6543V12.0518C35.2803 10.6426 34.4424 9.88086 33.4521 9.88086C32.9316 9.88086 32.5127 10.0459 31.9922 10.3506L19.0557 17.9678C18.3574 18.374 17.9766 18.8311 17.8369 19.3643V12.0518C17.8369 10.6426 16.999 9.88086 16.0088 9.88086C15.4883 9.88086 15.0693 10.0459 14.5488 10.3506L1.6123 17.9678C0.710938 18.501 0.330078 19.123 0.330078 19.8467C0.330078 20.583 0.710938 21.2051 1.6123 21.7383L14.5488 29.3555C15.0566 29.6602 15.4883 29.8252 16.0088 29.8252Z" fill="white"/>
</svg>
